<svg xmlns="http://www.w3.org/2000/svg" width="48" height="48" viewBox="0 0 24 24" fill="none" stroke="#6366f1" stroke-width="2" stroke-linecap="round" stroke-linejoin="round">
  <path d="M 4 20 C 8 20, 13 18, 17 13 C 21 8, 20.5 4.5, 17 3 C 14 1.7, 11.5 4, 10.5 7.5 C 9.5 11, 10.5 14, 13 16 C 15 17.5, 17.5 17, 19 15.5" stroke-width="2.1" />
  <path d="M 15.2 3.8 C 16.2 4.8, 17.2 6.3, 17.2 7.8" stroke-width="1.5" stroke-dasharray="2 2" />
  <path d="M 5.5 11.2 h 5 a 0.75 0.75 0 0 1 0.75 0.75 v 0.5 a 0.75 0.75 0 0 0 0 1.5 v 0.5 a 0.75 0.75 0 0 1 -0.75 0.75 h -5 a 0.75 0.75 0 0 1 -0.75 -0.75 v -0.5 a 0.75 0.75 0 0 0 0 -1.5 v -0.5 a 0.75 0.75 0 0 1 0.75 -0.75 z" transform="rotate(-20 8 13)" stroke-width="1.6" />
</svg>